<svg width="1086" height="529" viewBox="0 0 1086 529" fill="none" xmlns="http://www.w3.org/2000/svg">
<rect width="1086" height="529" fill="#0B0B0B"/>
<rect x="374" y="304" width="64" height="6" transform="rotate(-90 374 304)" fill="white"/>
<rect x="321" y="305" width="82" height="6" transform="rotate(-90 321 305)" fill="white"/>
<rect x="380.465" y="223.066" width="54.9298" height="6" transform="rotate(121.81 380.465 223.066)" fill="white"/>
<rect x="349.058" y="268.562" width="51.9495" height="6" transform="rotate(-121.807 349.058 268.562)" fill="white"/>
<rect x="346" y="265" width="10" height="6" fill="#0B0B0B"/>
<rect x="321" y="217" width="66" height="8" fill="#0B0B0B"/>
<rect x="374" y="225" width="98" height="6" fill="white"/>
<rect x="412.632" y="261" width="59.3684" height="6" fill="white"/>
<rect x="412.632" y="298" width="59.3684" height="6" fill="white"/>
<rect x="493" y="225" width="79" height="6" fill="white"/>
<rect x="493" y="261" width="60" height="6" fill="white"/>
<rect x="493" y="298" width="60" height="6" fill="white"/>
<rect x="553" y="225" width="60" height="6" fill="white"/>
<rect x="553" y="225" width="60" height="6" fill="white"/>
<rect x="580" y="305" width="79" height="6" transform="rotate(-90 580 305)" fill="white"/>
<rect x="685.465" y="224.066" width="103.478" height="6" transform="rotate(121.81 685.465 224.066)" fill="white"/>
<rect x="679.984" y="311.365" width="101.139" height="6" transform="rotate(-121.807 679.984 311.365)" fill="white"/>
<rect x="623" y="306" width="68" height="6" fill="#0B0B0B"/>
<rect x="626" y="218" width="66" height="9" fill="#0B0B0B"/>
<rect x="717" y="297" width="48" height="6" fill="white"/>
<rect x="705" y="303" width="76" height="6" transform="rotate(-90 705 303)" fill="white"/>
</svg>
