<svg width="444" height="96" viewBox="0 0 444 96" fill="none" xmlns="http://www.w3.org/2000/svg">
<rect x="53" y="87" width="64" height="6" transform="rotate(-90 53 87)" fill="white"/>
<rect y="88" width="82" height="6" transform="rotate(-90 0 88)" fill="white"/>
<rect x="59.4651" y="6.06594" width="54.9298" height="6" transform="rotate(121.81 59.4651 6.06594)" fill="white"/>
<rect x="28.0577" y="51.5623" width="51.9495" height="6" transform="rotate(-121.807 28.0577 51.5623)" fill="white"/>
<rect x="25" y="48" width="10" height="6" fill="#0B0B0B"/>
<rect width="66" height="8" fill="#0B0B0B"/>
<rect x="53" y="8" width="98" height="6" fill="white"/>
<rect x="91.6316" y="44" width="59.3684" height="6" fill="white"/>
<rect x="91.6316" y="81" width="59.3684" height="6" fill="white"/>
<rect x="172" y="8" width="79" height="6" fill="white"/>
<rect x="172" y="44" width="60" height="6" fill="white"/>
<rect x="172" y="81" width="60" height="6" fill="white"/>
<rect x="232" y="8" width="60" height="6" fill="white"/>
<rect x="232" y="8" width="60" height="6" fill="white"/>
<rect x="259" y="88" width="79" height="6" transform="rotate(-90 259 88)" fill="white"/>
<rect x="364.465" y="7.06594" width="103.478" height="6" transform="rotate(121.81 364.465 7.06594)" fill="white"/>
<rect x="358.984" y="94.3647" width="101.139" height="6" transform="rotate(-121.807 358.984 94.3647)" fill="white"/>
<rect x="302" y="89" width="68" height="6" fill="#0B0B0B"/>
<rect x="305" y="1" width="66" height="9" fill="#0B0B0B"/>
<rect x="396" y="80" width="48" height="6" fill="white"/>
<rect x="384" y="86" width="76" height="6" transform="rotate(-90 384 86)" fill="white"/>
</svg>
